<?xml version="1.0" encoding="iso-8859-1"?>
<!-- Generator: Adobe Illustrator 19.0.0, SVG Export Plug-In . SVG Version: 6.00 Build 0)  -->
<svg version="1.1" id="Layer_1" xmlns="http://www.w3.org/2000/svg" xmlns:xlink="http://www.w3.org/1999/xlink" x="0px" y="0px"
	 viewBox="0 0 512 512" style="enable-background:new 0 0 512 512;" xml:space="preserve">
<path style="fill:#C5EBFD;" d="M494.729,134.927l-31.357,47.411H48.629l-31.334-47.445c18.011-46.399,49.175-86.244,88.917-114.961
	h299.577C445.542,48.66,476.706,88.517,494.729,134.927z"/>
<path style="fill:#6ECDFB;" d="M494.729,134.927c11.15,28.718,17.271,59.95,17.271,92.604c0,141.392-114.62,256-256,256
	S0,368.922,0,227.531c0-32.677,6.121-63.909,17.294-92.638c8.67,8.34,19.524,13.312,31.334,13.312
	c17.021,0,32.108-10.342,41.483-26.169c9.387,15.826,24.451,26.169,41.472,26.169s32.074-10.342,41.483-26.169
	c9.387,15.826,24.439,26.169,41.461,26.169s32.108-10.342,41.483-26.169c9.387,15.826,24.439,26.169,41.472,26.169
	c17.021,0,32.074-10.342,41.483-26.169c9.387,15.826,24.428,26.169,41.449,26.169c17.033,0,32.119-10.342,41.495-26.169
	c9.375,15.826,24.439,26.169,41.461,26.169C475.17,148.205,486.047,143.233,494.729,134.927z"/>
<path style="fill:#1895C2;" d="M327.718,492.068H184.282c-4.714,0-8.533-3.82-8.533-8.533c0-4.714,3.82-8.533,8.533-8.533h143.435
	c4.714,0,8.533,3.82,8.533,8.533C336.251,488.249,332.431,492.068,327.718,492.068z"/>
<path style="fill:#F24802;" d="M384.17,316.835c-25.953-25.054-62.76-40.937-103.891-41.358
	c-34.821-0.222-66.786,10.637-91.69,28.895l-46.044-36.056c-3.958-3.098-9.68-2.402-12.778,1.554
	c-3.099,3.958-2.403,9.679,1.554,12.778l41.189,32.255l-41.389,34.347c-3.868,3.21-4.402,8.949-1.192,12.817
	c1.8,2.17,4.394,3.29,7.009,3.29c2.049,0,4.109-0.687,5.807-2.098l45.239-37.542c24.711,18.82,56.688,30.271,91.715,30.541
	C320.761,356.589,357.854,341.399,384.17,316.835z"/>
<g>
</g>
<g>
</g>
<g>
</g>
<g>
</g>
<g>
</g>
<g>
</g>
<g>
</g>
<g>
</g>
<g>
</g>
<g>
</g>
<g>
</g>
<g>
</g>
<g>
</g>
<g>
</g>
<g>
</g>
</svg>
